P3
5 5
255
10 10 10
10 10 10
10 10 10
10 10 10
10 10 10
10 10 10
180 180 180
10 10 10
10 10 10
10 10 10
10 10 10
10 10 10
10 10 10
10 10 10
10 10 10
10 10 10
10 10 10
10 10 10
130 130 130
10 10 10
10 10 10
150 150 150
10 10 10
10 10 10
10 10 10
