
<svg width="1000" height="1000" xmlns="http://www.w3.org/2000/svg">
 <rect x="0" y="0" width="1000" height="1000" fill="#0D436F"/>
 <polygon fill="#122A4E" points="813,902 813,872 731,867 775,902"/>
 <polygon fill="#090B0A" points="775,902 731,867 741,902"/>
 <polygon fill="#0A1832" points="731,867 712,883 741,902"/>
 <polygon fill="#08090B" points="712,883 717,902 741,902"/>
 <polygon fill="#103A60" points="698,835 717,902 555,902"/>
 <polygon fill="#0D436F" points="555,902 552,838 698,835"/>
 <polygon fill="#0B5385" points="555,902 552,838 450,852"/>
 <polygon fill="#2167A2" points="450,852 444,902 555,902"/>
 <polygon fill="#0F2C4A" points="450,852 383,902 444,902"/>
 <polygon fill="#143C5F" points="450,852 398,838 383,902"/>
 <polygon fill="#2E83C4" points="398,838 383,902 305,902"/>
 <polygon fill="#116FAD" points="305,902 276,808 398,838"/>
 <polygon fill="#2367A4" points="276,808 232,874 305,902"/>
 <polygon fill="#185C8B" points="232,874 218,902 305,902"/>
 <polygon fill="#07518E" points="218,866 218,902 232,874"/>
 <polygon fill="#0D73B3" points="698,835 712,884 731,867"/>
 <polygon fill="#448AC8" points="731,867 722,794 698,835"/>
 <polygon fill="#23476B" points="813,872 731,867 813,787"/>
 <polygon fill="#1F5987" points="731,867 813,787 722,794"/>
 <polygon fill="#142A4F" points="450,852 479,820 552,838"/>
 <polygon fill="#142C52" points="479,820 552,838 698,835 600,792"/>
 <polygon fill="#142A4F" points="684,788 658,818 698,835"/>
 <polygon fill="#4F91CD" points="684,788 698,835 722,794"/>
 <polygon fill="#123B67" points="684,788 719,773 722,794"/>
 <polygon fill="#10152B" points="719,773 722,794 813,748"/>
 <polygon fill="#C2BDB9" points="722,794 813,748 813,787"/>
 <polygon fill="#0C1E36" points="232,858 232,874 218,866"/>
 <polygon fill="#0E151F" points="276,808 232,874 232,858"/>
 <polygon fill="#1F5E93" points="218,866 218,832 232,858"/>
 <polygon fill="#1F6AA3" points="232,858 276,808 262,771 218,832"/>
 <polygon fill="#2D7EBF" points="262,771 218,832 218,773"/>
 <polygon fill="#FFF8EE" points="218,757 218,773 262,771"/>
 <polygon fill="#1C4F7A" points="262,771 276,808 309,780"/>
 <polygon fill="#0C0D0F" points="276,808 363,779 309,780"/>
 <polygon fill="#8697AB" points="276,808 349,826 363,779"/>
 <polygon fill="#7F90A4" points="363,779 349,826 398,838"/>
 <polygon fill="#1D4370" points="363,779 398,838 450,852"/>
 <polygon fill="#FFFAF6" points="262,771 301,763 284,745 267,738 218,757"/>
 <polygon fill="#FAF3E9" points="267,738 322,731 284,745"/>
 <polygon fill="#FEF7EF" points="284,745 322,731 325,755"/>
 <polygon fill="#D8D2D2" points="284,745 301,763 325,755"/>
 <polygon fill="#1D314A" points="262,771 309,780 301,763"/>
 <polygon fill="#486D99" points="301,763 309,780 325,755"/>
 <polygon fill="#495666" points="325,755 309,780 363,779"/>
 <polygon fill="#386C9C" points="363,779 325,755 341,745"/>
 <polygon fill="#1C385D" points="325,755 341,745 322,731"/>
 <polygon fill="#32313F" points="322,731 341,745 336,711"/>
 <polygon fill="#222931" points="336,711 341,745 391,733"/>
 <polygon fill="#16131A" points="336,711 387,688 391,733"/>
 <polygon fill="#1E2832" points="387,688 391,733 418,694"/>
 <polygon fill="#151C2C" points="387,688 429,674 418,694"/>
 <polygon fill="#101324" points="429,674 425,702 418,694"/>
 <polygon fill="#F9F3E7" points="418,694 391,733 425,702"/>
 <polygon fill="#FFF6EF" points="425,702 391,733 439,711"/>
 <polygon fill="#C7C7C9" points="391,733 438,755 439,711"/>
 <polygon fill="#DDD6CE" points="391,733 373,738 397,753 411,742"/>
 <polygon fill="#467EB7" points="341,745 363,779 397,753 373,738"/>
 <polygon fill="#5588C1" points="411,742 405,814 363,779"/>
 <polygon fill="#0B4A76" points="411,742 405,814 438,755"/>
 <polygon fill="#2964A8" points="438,755 450,852 405,814"/>
 <polygon fill="#2373A8" points="438,755 474,762 450,852"/>
 <polygon fill="#2371B3" points="474,762 450,852 479,820"/>
 <polygon fill="#277DB8" points="439,711 438,755 458,721"/>
 <polygon fill="#345C8D" points="429,674 425,702 458,721"/>
 <polygon fill="#184C73" points="458,721 429,674 447,646"/>
 <polygon fill="#2373B2" points="458,721 438,755 474,762"/>
 <polygon fill="#091933" points="458,721 474,762 489,739"/>
 <polygon fill="#0F4271" points="489,739 474,762 515,760"/>
 <polygon fill="#0E1424" points="474,762 479,820 515,760"/>
 <polygon fill="#25619D" points="515,760 479,820 533,807"/>
 <polygon fill="#153F69" points="515,760 533,807 557,751"/>
 <polygon fill="#345A7F" points="557,751 533,807 600,792"/>
 <polygon fill="#3F628A" points="557,751 600,792 626,744"/>
 <polygon fill="#395471" points="626,744 600,792 671,758"/>
 <polygon fill="#1A335B" points="632,777 658,818 600,792"/>
 <polygon fill="#0D0C11" points="632,777 658,818 684,788"/>
 <polygon fill="#354A67" points="632,777 684,788 671,758"/>
 <polygon fill="#2E425B" points="671,758 684,788 719,773"/>
 <polygon fill="#0D2644" points="671,758 719,773 813,748"/>
 <polygon fill="#5D95CE" points="458,721 511,703 489,739"/>
 <polygon fill="#1D6CA7" points="458,721 454,697 511,703"/>
 <polygon fill="#0E1327" points="511,703 489,739 527,709"/>
 <polygon fill="#0A589A" points="489,739 539,719 527,709"/>
 <polygon fill="#2680BE" points="489,739 515,760 539,719"/>
 <polygon fill="#112548" points="447,646 454,697 511,703"/>
 <polygon fill="#1B5175" points="423,623 429,674 447,646"/>
 <polygon fill="#164F7A" points="539,719 515,760 557,751"/>
 <polygon fill="#183159" points="587,713 557,751 539,719"/>
 <polygon fill="#0E3053" points="626,744 557,751 587,713"/>
 <polygon fill="#0F2749" points="587,713 659,683 626,744"/>
 <polygon fill="#100F14" points="626,744 671,758 713,728 659,683"/>
 <polygon fill="#090A0C" points="671,758 813,748 713,728"/>
 <polygon fill="#0F1523" points="713,728 813,748 813,701"/>
 <polygon fill="#345E90" points="527,709 529,660 556,654"/>
 <polygon fill="#0E1422" points="529,660 527,709 511,703"/>
 <polygon fill="#132B4F" points="447,646 500,633 511,703"/>
 <polygon fill="#0A3150" points="500,633 511,703 529,660"/>
 <polygon fill="#0F1A2E" points="601,676 587,713 539,719"/>
 <polygon fill="#122232" points="601,676 539,719 527,709"/>
 <polygon fill="#0A0B0D" points="556,654 527,709 601,676 659,683 659,647 654,598 601,628"/>
 <polygon fill="#12151E" points="601,676 587,713 659,683"/>
 <polygon fill="#182432" points="813,701 770,690 713,728"/>
 <polygon fill="#0B0A0F" points="713,728 770,690 693,670 659,683"/>
 <polygon fill="#0E0D12" points="659,683 659,647 693,670"/>
 <polygon fill="#110F14" points="447,646 493,583 423,623"/>
 <polygon fill="#13131B" points="493,583 447,646 500,633"/>
 <polygon fill="#0D0C11" points="493,583 500,633 577,584"/>
 <polygon fill="#101C32" points="577,584 500,633 529,660"/>
 <polygon fill="#111015" points="577,584 529,660 556,654"/>
 <polygon fill="#363C4C" points="556,654 593,586 577,584"/>
 <polygon fill="#16151B" points="573,622 556,654 601,628"/>
 <polygon fill="#08080A" points="573,622 654,598 601,628"/>
 <polygon fill="#0B0C0E" points="654,598 593,586 573,622"/>
 <polygon fill="#0B0B0B" points="661,539 654,598 595,586"/>
 <polygon fill="#0B0C0E" points="493,583 423,570 423,623"/>
 <polygon fill="#0B0C0E" points="423,623 423,570 382,607"/>
 <polygon fill="#0A0B0D" points="607,532 595,586 661,539"/>
 <polygon fill="#283845" points="607,532 595,586 595,530"/>
 <polygon fill="#151C2C" points="595,530 577,584 595,586"/>
 <polygon fill="#141519" points="595,530 493,583 577,584"/>
 <polygon fill="#08080A" points="595,530 479,539 493,583"/>
 <polygon fill="#0B0B0D" points="493,583 479,539 423,570"/>
 <polygon fill="#0C1526" points="357,595 423,570 382,607"/>
 <polygon fill="#908CAD" points="357,570 357,595 408,576"/>
 <polygon fill="#665158" points="407,557 408,576 423,570"/>
 <polygon fill="#9F95B7" points="407,557 357,570 408,576"/>
 <polygon fill="#B1B0CF" points="357,570 357,595 339,575"/>
 <polygon fill="#090B0A" points="480,538 521,492 620,482 595,530"/>
 <polygon fill="#08090B" points="620,482 595,530 661,539"/>
 <polygon fill="#0F1012" points="620,482 661,539 697,491"/>
 <polygon fill="#0B0B0B" points="717,381 697,491 620,482"/>
 <polygon fill="#120F16" points="620,482 624,396 538,411"/>
 <polygon fill="#100F14" points="558,428 521,492 620,482"/>
 <polygon fill="#D7D2E6" points="348,549 339,575 357,570"/>
 <polygon fill="#BAB8D0" points="348,549 359,535 342,529"/>
 <polygon fill="#D7CEDF" points="359,535 348,549 357,570 407,557"/>
 <polygon fill="#624750" points="407,557 435,549 423,570"/>
 <polygon fill="#A68495" points="413,512 407,557 435,549"/>
 <polygon fill="#AC7E8B" points="413,512 435,505 435,549"/>
 <polygon fill="#09213D" points="435,549 423,570 479,539"/>
 <polygon fill="#0A2747" points="435,505 435,549 480,538"/>
 <polygon fill="#C9BCD0" points="413,512 407,557 359,535 390,509"/>
 <polygon fill="#ADA9C4" points="355,527 342,529 359,535"/>
 <polygon fill="#CBBDD7" points="339,518 342,529 351,518"/>
 <polygon fill="#8A7DAB" points="351,518 342,529 355,527"/>
 <polygon fill="#BBA8C6" points="351,518 359,535 383,514"/>
 <polygon fill="#CDAECE" points="344,512 339,518 351,518"/>
 <polygon fill="#7E5398" points="390,509 383,514 375,506"/>
 <polygon fill="#B389BC" points="383,514 372,515 365,509 375,506"/>
 <polygon fill="#B1A3BA" points="342,503 344,512 347,509"/>
 <polygon fill="#C5A0CB" points="347,509 344,512 351,518 372,515 365,509"/>
 <polygon fill="#BA9BC5" points="339,487 336,495 344,492"/>
 <polygon fill="#8E6293" points="344,492 347,509 336,495"/>
 <polygon fill="#6C376B" points="344,492 347,509 354,500"/>
 <polygon fill="#391133" points="354,500 347,509 365,509 375,506"/>
 <polygon fill="#9E72B1" points="351,489 354,500 344,492"/>
 <polygon fill="#E5DFE9" points="339,487 344,492 351,489"/>
 <polygon fill="#C2A2B1" points="419,475 435,505 413,512"/>
 <polygon fill="#D6C3D7" points="419,475 389,482 413,512"/>
 <polygon fill="#BDB4C9" points="389,482 390,509 413,512"/>
 <polygon fill="#D8CDDE" points="419,475 389,467 389,482"/>
 <polygon fill="#CCC3D6" points="389,467 390,509 351,489 357,473"/>
 <polygon fill="#CBCCE0" points="354,464 339,487 357,473"/>
 <polygon fill="#D6CEE3" points="357,473 351,489 339,487"/>
 <polygon fill="#775B67" points="354,464 357,473 389,467"/>
 <polygon fill="#875B9A" points="351,489 354,500 373,506"/>
 <polygon fill="#9C90B8" points="374,506 349,488 390,509"/>
 <polygon fill="#15355E" points="435,452 419,475 435,505 452,482"/>
 <polygon fill="#1A6BAA" points="407,439 389,467 419,475"/>
 <polygon fill="#0D2A4A" points="452,482 435,505 479,538"/>
 <polygon fill="#0D233A" points="480,538 452,482 521,492"/>
 <polygon fill="#0B1B34" points="435,452 452,482 489,462"/>
 <polygon fill="#111B27" points="489,462 558,428 521,492 452,482"/>
 <polygon fill="#11151E" points="435,452 479,426 489,462"/>
 <polygon fill="#0D0C11" points="538,411 489,462 479,426"/>
 <polygon fill="#121317" points="538,411 489,462 558,428"/>
 <polygon fill="#2067A9" points="407,439 419,475 435,452"/>
 <polygon fill="#237DBC" points="393,426 389,467 407,439"/>
 <polygon fill="#102947" points="393,426 389,467 371,436"/>
 <polygon fill="#111226" points="356,450 354,464 389,467 380,452"/>
 <polygon fill="#0C1C33" points="312,444 354,464 356,450"/>
 <polygon fill="#1D4A69" points="312,444 356,450 371,436"/>
 <polygon fill="#1E4059" points="371,436 356,450 380,452"/>
 <polygon fill="#183B5B" points="312,444 371,436 339,409"/>
 <polygon fill="#12365A" points="339,409 371,436 393,426"/>
 <polygon fill="#0F395F" points="390,377 393,426 339,409"/>
 <polygon fill="#163F5F" points="339,409 366,375 390,377"/>
 <polygon fill="#0C4169" points="366,375 361,360 390,377"/>
 <polygon fill="#0B2A46" points="393,426 416,388 390,377"/>
 <polygon fill="#142E53" points="416,388 411,396 429,409"/>
 <polygon fill="#105687" points="411,396 393,426 426,416"/>
 <polygon fill="#256098" points="411,396 426,416 429,409"/>
 <polygon fill="#1D76B8" points="393,426 407,439 440,422 426,416"/>
 <polygon fill="#1E63A6" points="440,422 407,439 435,452"/>
 <polygon fill="#104A7A" points="416,388 429,409 435,391"/>
 <polygon fill="#2D5F92" points="440,422 435,452 479,426"/>
 <polygon fill="#283845" points="525,388 538,411 479,426"/>
 <polygon fill="#2B405D" points="477,400 479,426 525,388"/>
 <polygon fill="#314C6A" points="477,400 479,426 440,422"/>
 <polygon fill="#10446C" points="477,400 462,401 440,422"/>
 <polygon fill="#0F477A" points="426,416 440,422 451,411"/>
 <polygon fill="#317DB1" points="429,409 426,416 451,411"/>
 <polygon fill="#1A5C90" points="462,401 451,411 429,409"/>
 <polygon fill="#315D8E" points="435,391 429,409 447,405"/>
 <polygon fill="#1B395F" points="447,391 447,405 435,391"/>
 <polygon fill="#28394D" points="525,388 538,411 575,370"/>
 <polygon fill="#121B22" points="538,411 575,370 624,396"/>
 <polygon fill="#090A0C" points="644,243 627,342 624,396 620,482 717,381 692,232"/>
 <polygon fill="#090B0A" points="644,243 644,125 692,232"/>
 <polygon fill="#4996CC" points="644,243 608,243 644,125"/>
 <polygon fill="#1B598A" points="608,243 627,342 644,243"/>
 <polygon fill="#0C0C0E" points="626,340 624,396 575,370"/>
 <polygon fill="#090B0A" points="608,243 567,137 555,223"/>
 <polygon fill="#154172" points="567,137 555,223 526,226"/>
 <polygon fill="#D8D0CD" points="608,243 555,223 507,250"/>
 <polygon fill="#F2EBE3" points="555,223 507,250 480,230"/>
 <polygon fill="#EDE4DB" points="480,230 483,256 507,250"/>
 <polygon fill="#253849" points="507,250 490,322 575,370"/>
 <polygon fill="#12151A" points="507,250 575,370 626,340"/>
 <polygon fill="#121116" points="608,243 507,250 626,340"/>
 <polygon fill="#363F4E" points="490,322 525,388 575,370"/>
 <polygon fill="#11141B" points="525,388 453,329 490,322"/>
 <polygon fill="#123C66" points="447,386 447,405 462,401 472,395 466,388"/>
 <polygon fill="#2D6AA1" points="462,401 472,395 477,400"/>
 <polygon fill="#1C2D41" points="472,344 477,400 525,388"/>
 <polygon fill="#3E75AD" points="475,379 466,388 477,400"/>
 <polygon fill="#122A4E" points="447,386 466,388 455,368"/>
 <polygon fill="#0B446F" points="455,368 466,388 475,379"/>
 <polygon fill="#0C3256" points="472,344 475,379 455,368"/>
 <polygon fill="#0B2A49" points="453,329 455,368 472,344"/>
 <polygon fill="#121A2F" points="507,250 490,322 453,329"/>
 <polygon fill="#0D2541" points="483,256 470,303 507,250"/>
 <polygon fill="#153C59" points="450,317 453,329 470,303"/>
 <polygon fill="#103056" points="483,256 430,274 475,286"/>
 <polygon fill="#27436A" points="466,253 430,274 483,256"/>
 <polygon fill="#074B7A" points="425,303 430,274 475,286"/>
 <polygon fill="#FFFAF6" points="480,230 483,256 436,247"/>
 <polygon fill="#1A557D" points="430,274 400,297 425,303"/>
 <polygon fill="#FEF9F5" points="436,247 430,274 465,253"/>
 <polygon fill="#FBF4EC" points="415,265 436,247 430,274"/>
 <polygon fill="#B4B5BA" points="400,297 430,274 415,265"/>
 <polygon fill="#A4AAAA" points="391,294 415,265 400,297"/>
 <polygon fill="#0F4574" points="475,286 407,344 406,344 470,303"/>
 <polygon fill="#2C76B3" points="425,303 406,344 475,286"/>
 <polygon fill="#CEC9C6" points="361,360 361,337 391,294"/>
 <polygon fill="#0F4E79" points="390,377 385,355 361,360"/>
 <polygon fill="#9299A9" points="400,297 377,325 391,294"/>
 <polygon fill="#1F619B" points="425,303 385,355 417,301"/>
 <polygon fill="#3A679E" points="377,325 361,360 385,355"/>
 <polygon fill="#7586A2" points="400,297 385,355 377,325"/>
 <polygon fill="#6A7B99" points="417,301 400,297 385,355"/>
 <polygon fill="#5093C8" points="453,329 450,317 407,343"/>
 <polygon fill="#3F94CD" points="425,303 385,355 407,343"/>
 <polygon fill="#0E5B9F" points="390,377 385,355 407,343"/>
 <polygon fill="#16385B" points="447,386 441,383 447,389"/>
 <polygon fill="#5C7FA5" points="436,391 441,383 447,389 447,391"/>
 <polygon fill="#0B538D" points="453,329 432,355 407,344"/>
 <polygon fill="#0C5896" points="390,377 401,367 397,363"/>
 <polygon fill="#0C5896" points="432,355 407,343 397,363 401,367"/>
 <polygon fill="#133C68" points="453,329 432,355 455,368"/>
 <polygon fill="#0D1520" points="390,377 401,367 420,363 409,377"/>
 <polygon fill="#1D2B5A" points="432,355 438,358 420,363"/>
 <polygon fill="#091839" points="401,367 420,363 432,355"/>
 <polygon fill="#192A55" points="447,386 455,368 434,377"/>
 <polygon fill="#094466" points="438,358 420,363 409,377 427,366 455,368"/>
 <polygon fill="#0F0E13" points="416,388 427,366 409,377"/>
 <polygon fill="#10131C" points="390,377 409,377 416,388"/>
 <polygon fill="#11141F" points="436,370 427,366 434,377"/>
 <polygon fill="#11141D" points="416,388 434,377 427,366"/>
 <polygon fill="#1B486F" points="455,368 434,377 436,370"/>
 <polygon fill="#081933" points="427,366 436,370 455,368"/>
 <polygon fill="#0C1B38" points="425,382 426,389 416,388"/>
 <polygon fill="#0A0D43" points="434,377 425,382 434,381"/>
 <polygon fill="#1D4275" points="447,386 434,381 434,377"/>
 <polygon fill="#446CAA" points="425,382 425,383 436,391 426,389"/>
 <polygon fill="#ACD0E2" points="440,384 436,391 433,388"/>
 <polygon fill="#FDFFFF" points="430,382 433,388 435,381"/>
 <polygon fill="#548DCA" points="440,384 433,388 435,381"/>
 <polygon fill="#275CA1" points="425,383 433,388 430,382"/>
</svg>

