<svg width="800" height="600" xmlns="http://www.w3.org/2000/svg">
    <polyline points="392,85 380,128 339,98" fill="none" stroke="#FADFAA" />
    <polyline points="392,85 380,128 412,111" fill="none" stroke="#EABA8C" />			
    <polyline points="339,98 380,128 340,140" fill="none" stroke="#FAD398" />
    <polyline points="339,98 340,140 309,142" fill="none" stroke="#DFA387" />
    <polyline points="339,98 309,142 286,133" fill="none" stroke="#F9D8AD" />
    <polyline points="392,85 412,111 443,101" fill="none" stroke="#DBB08E" />
    <polyline points="443,101 412,111 434,126" fill="none" stroke="#D59F7D" />
    <polyline points="443,101 434,126 475,122" fill="none" stroke="#FACC91" />
    <polyline points="412,111 380,128 402,132" fill="none" stroke="#CE8670" />
    <polyline points="412,111 402,132 418,142" fill="none" stroke="#BC716C" />
    <polyline points="309,142 340,140 309,185" fill="none" stroke="#BC716C" />
    <polyline points="412,111 434,126 418,142" fill="none" stroke="#D1806D" />
    <polyline points="434,126 475,122 462,137" fill="none" stroke="#F8DC9B" />
    <polyline points="475,122 462,137 509,139" fill="none" stroke="#FAD295" />
    <polyline points="434,126 462,137 425,155" fill="none" stroke="#DC8C6B" />
    <polyline points="434,126 425,155 418,142" fill="none" stroke="#EC9B6C" />
    <polyline points="380,128 402,132 369,156" fill="none" stroke="#E49C76" />
    <polyline points="380,128 369,156 340,140" fill="none" stroke="#DD8D76" />
    <polyline points="402,132 396,168 369,156" fill="none" stroke="#DB8A6F" />
    <polyline points="462,137 509,139 491,171" fill="none" stroke="#FBC27F" />
    <polyline points="425,155 462,137 461,173" fill="none" stroke="#CE7660" />			
    <polyline points="340,140 327,193 309,185" fill="none" stroke="#BF5D76" />
    <polyline points="402,132 418,142 396,168" fill="none" stroke="#A8526D" />		
    <polyline points="286,133 309,142 292,179" fill="none" stroke="#F6B78B" />
    <polyline points="509,139 491,171 542,154" fill="none" stroke="#F7CB8C" />
    <polyline points="542,154 491,171 520,192" fill="none" stroke="#D99860" />
    <polyline points="418,142 410,172 425,155" fill="none" stroke="#D4846D" />
    <polyline points="410,172 425,155 431,188" fill="none" stroke="#EFA872" />
    <polyline points="425,155 460,187 461,173" fill="none" stroke="#954A5E" />
    <polyline points="369,156 340,140 344,188" fill="none" stroke="#C46374" />
    <polyline points="286,133 292,179 258,161" fill="none" stroke="#B95E7F" />
    <polyline points="258,161 261,177 255,195" fill="none" stroke="#944F8B" />
    <polyline points="418,142 396,168 410,172" fill="none" stroke="#B45E69" />
    <polyline points="462,137 461,173 491,171" fill="none" stroke="#D7835F" />	
    <polyline points="491,171 482,192 520,192" fill="none" stroke="#BD6D56" />
    <polyline points="461,173 491,171 482,192" fill="none" stroke="#B05D59" />
    <polyline points="461,173 482,192 460,187" fill="none" stroke="#82365A" />
    <polyline points="258,161 292,179 261,177" fill="none" stroke="#9C4083" />
    <polyline points="309,142 292,179 309,185" fill="none" stroke="#B75D79" />
    <polyline points="369,156 362,192 380,183" fill="none" stroke="#F9CB8D" />				
    <polyline points="292,179 301,203 278,191" fill="none" stroke="#C86E78" />
    <polyline points="261,177 292,179 278,191" fill="none" stroke="#EA9E86" />			
    <polyline points="292,179 309,185 301,203" fill="none" stroke="#AF5078" />
    <polyline points="369,156 344,188 362,192" fill="none" stroke="#D59071" />
    <polyline points="431,188 425,155 460,187" fill="none" stroke="#F9CD90" />
    <polyline points="340,140 344,188 327,193" fill="none" stroke="#AD4F74" />
    <polyline points="380,183 380,206 388,187" fill="none" stroke="#E0A072" />
    <polyline points="344,188 322,223 342,208" fill="none" stroke="#E8AA7D" />
    <polyline points="380,183 388,187 396,168" fill="none" stroke="#ECB984" />
    <polyline points="388,187 408,193 396,168" fill="none" stroke="#F9D49D" />
    <polyline points="380,183 396,168 369,156" fill="none" stroke="#F9D49D" />
    <polyline points="261,177 278,191 255,195" fill="none" stroke="#EDAD87" />
    <polyline points="278,191 277,203 301,203" fill="none" stroke="#A55079" />
    <polyline points="380,206 388,187 408,193" fill="none" stroke="#F3BB7E" />
    <polyline points="431,188 460,187 464,208" fill="none" stroke="#F7BC76" />
    <polyline points="344,188 362,192 342,208" fill="none" stroke="#CC8571" />
    <polyline points="362,192 380,183 380,206" fill="none" stroke="#F7C185" />	
    <polyline points="460,187 490,213 482,192" fill="none" stroke="#8A4256" />
    <polyline points="362,192 380,206 361,205" fill="none" stroke="#DC9D72" />
    <polyline points="327,193 344,188 322,223" fill="none" stroke="#C9766E" />
    <polyline points="327,193 322,223 306,217" fill="none" stroke="#A35370" />
    <polyline points="255,195 278,191 277,203" fill="none" stroke="#B4607A" />
    <polyline points="255,195 277,203 252,222" fill="none" stroke="#A5497A" />
    <polyline points="327,193 309,185 301,203 306,217" fill="none" stroke="#933A73" />
    <polyline points="362,192 361,205 348,223" fill="none" stroke="#C67468" />
    <polyline points="348,223 361,205 380,206" fill="none" stroke="#662366" />
    <polyline points="520,192 482,192 490,213 520,205" fill="none" stroke="#974F53" />
    <polyline points="460,187 464,208 490,213" fill="none" stroke="#E19E67" />
    <polyline points="342,208 362,192 348,223" fill="none" stroke="#B26369" />
    <polyline points="490,213 520,205 529,218" fill="none" stroke="#5E2A50" />
    <polyline points="464,208 490,213 468,220" fill="none" stroke="#DB9460" />
    <polyline points="277,203 294,221 306,217 301,203" fill="none" stroke="#6A2774" />
    <polyline points="490,213 529,218 500,245" fill="none" stroke="#8F4A4F" />
    <polyline points="277,203 252,222 294,221" fill="none" stroke="#802A75" />
    <polyline points="342,208 348,223 322,223" fill="none" stroke="#F9C589" />
    <polyline points="252,222 294,221 287,236" fill="none" stroke="#A75472" />
    <polyline points="322,223 348,223 331,253" fill="none" stroke="#F1BB7F" />
    <polyline points="331,253 348,223 342,245" fill="none" stroke="#D8996E" />
    <polyline points="500,245 529,218 498,273" fill="none" stroke="#A05A50" />
    <polyline points="331,253 351,253 345,280" fill="none" stroke="#F8BF7A" />
    <polyline points="498,273 509,320 520,279" fill="none" stroke="#EEA65A" />
    <polyline points="468,284 498,273 471,303" fill="none" stroke="#BB6C4B" />
    <polyline points="471,303 498,273 509,320" fill="none" stroke="#E89553" />
    <polyline points="471,303 509,320 466,320" fill="none" stroke="#B77954" />
    <polyline points="466,320 509,320 468,338" fill="none" stroke="#A15B53" />
    <polyline points="520,279 509,320 522,330" fill="none" stroke="#F2BA70" />
    <polyline points="534,304 522,330 562,331" fill="none" stroke="#BC7255" />
    <polyline points="522,330 562,331 550,386" fill="none" stroke="#A5625C" />
    <polyline points="509,320 522,330 490,351" fill="none" stroke="#CD8754" />
    <polyline points="509,320 490,351 468,338" fill="none" stroke="#AF6751" />
    <polyline points="468,338 490,351 440,382" fill="none" stroke="#BF7B54" />
    <polyline points="468,338 440,382 444,350" fill="none" stroke="#A65E52" />
    <polyline points="490,351 522,330 512,382" fill="none" stroke="#E6A56D" />
    <polyline points="490,351 512,382 469,394" fill="none" stroke="#CE875B" />
    <polyline points="490,351 469,394 440,382" fill="none" stroke="#DB925D" />
    <polyline points="402,354 440,382 398,402" fill="none" stroke="#753653" />
    <polyline points="522,330 512,382 550,386" fill="none" stroke="#8E4E5C" />
    <polyline points="440,382 398,402 432,426" fill="none" stroke="#712F53" />
    <polyline points="440,382 432,426 469,394" fill="none" stroke="#C37456" />
    <polyline points="512,382 550,386 490,463" fill="none" stroke="#6A275D" />
    <polyline points="512,382 490,463 469,394" fill="none" stroke="#7A385C" />
    <polyline points="469,394 490,463 432,426" fill="none" stroke="#9F4E5F" />
    <polyline points="432,426 490,463 422,451" fill="none" stroke="#812F5D" />
    <polyline points="431,188 449,208 440,210" fill="none" stroke="#C58468" />
    <polyline points="396,168 410,172 408,193" fill="none" stroke="#BC716B" />
    <polyline points="410,172 408,193 431,188" fill="none" stroke="#C58468" />
    <polyline points="420,213 423,235 444,220" fill="none" stroke="#D1885F" />
    <polyline points="380,206 408,193 420,213" fill="none" stroke="#D99C6F" />
    <polyline points="408,193 440,210 431,188" fill="none" stroke="#D59764" />
    <polyline points="408,193 420,213 440,210" fill="none" stroke="#D1885F" />
    <polyline points="294,221 306,217 294,249" fill="none" stroke="#87386F" />
    <polyline points="294,249 287,236 294,221" fill="none" stroke="#AF5C6E" />
    <polyline points="529,218 498,273 520,279" fill="none" stroke="#C0724C" />
    <polyline points="529,218 520,279 540,260" fill="none" stroke="#D48C51" />
    <polyline points="294,249 306,217 322,223" fill="none" stroke="#AF5C6E" />
    <polyline points="252,222 287,236 294,249" fill="none" stroke="#55276F" />
    <polyline points="331,253 342,245 351,253" fill="none" stroke="#EBAC79" />			
    <polyline points="252,222 294,249 245,245" fill="none" stroke="#662873" />
    <polyline points="245,245 294,249 266,270" fill="none" stroke="#7A2B6D" />
    <polyline points="294,249 322,223 331,253" fill="none" stroke="#D4846B" />
    <polyline points="294,249 331,253 299,264" fill="none" stroke="#EBAC79" />
    <polyline points="299,264 331,253 345,280" fill="none" stroke="#E29F70" />
    <polyline points="520,279 522,330 534,304" fill="none" stroke="#EDB05F" />
    <polyline points="520,279 534,304 540,260" fill="none" stroke="#DC9B59" />
    <polyline points="540,260 534,304 562,331" fill="none" stroke="#CA834D" />
    <polyline points="294,249 299,264 266,270" fill="none" stroke="#D68C6F" />
    <polyline points="266,270 299,264 272,301" fill="none" stroke="#B46868" />		
    <polyline points="220,306 272,301 234,399" fill="none" stroke="#985066" />
    <polyline points="468,284 471,303 452,311" fill="none" stroke="#FAC174" />		
    <polyline points="444,350 440,382 402,354" fill="none" stroke="#5A2750" />			
    <polyline points="297,376 367,430 368,409" fill="none" stroke="#BC7652" />
    <polyline points="234,399 297,376 367,430" fill="none" stroke="#4F1E56" />
    <polyline points="406,445 422,451 418,476" fill="none" stroke="#984B5B" />
    <polyline points="234,399 390,471 394,525" fill="none" stroke="#5D2C4C" />
    <polyline points="432,426 422,451 406,445" fill="none" stroke="#854659" />
    <polyline points="406,445 432,426 391,420" fill="none" stroke="#A45B55" />
    <polyline points="234,399 367,430 390,471" fill="none" stroke="#5D2552" />			
    <polyline points="406,445 390,471 418,476" fill="none" stroke="#853E5C" />
    <polyline points="422,451 418,476 490,463" fill="none" stroke="#5D2552" />
    <polyline points="418,476 490,463 394,525" fill="none" stroke="#732F62" />
    <polyline points="394,525 418,476 390,471" fill="none" stroke="#914758" />
    <polyline points="342,245 351,253 348,223" fill="none" stroke="#974E65" />			
    <polyline points="266,270 272,301 220,306" fill="none" stroke="#A85E6D" />
    <polyline points="220,306 266,270 245,245" fill="none" stroke="#7A336F" />
    <polyline points="351,253 365,226 379,245" fill="none" stroke="#C78C6C" />
    <polyline points="468,284 452,311 441,282" fill="none" stroke="#F8D088" />	
    <polyline points="430,276 441,282 427,295" fill="none" stroke="#633752" />
    <polyline points="427,295 441,282 452,311" fill="none" stroke="#F7DB9C" />
    <polyline points="416,283 427,295 405,315" fill="none" stroke="#FAD58E" />			
    <polyline points="272,301 234,399 297,376" fill="none" stroke="#6C2861" />			
    <polyline points="427,295 405,315 427,306" fill="none" stroke="#C9A26B" />			
    <polyline points="427,306 427,312 452,317" fill="none" stroke="#744154" />
    <polyline points="272,301 297,376 307,309" fill="none" stroke="#AC6960" />	
    <polyline points="405,315 427,306 427,312" fill="none" stroke="#5F3752" />
    <polyline points="405,315 427,312 422,323" fill="none" stroke="#C99667" />			
    <polyline points="452,317 466,320 468,338" fill="none" stroke="#F2B66E" />
    <polyline points="452,317 468,338 444,350" fill="none" stroke="#F9CC89" />
    <polyline points="402,354 444,350 413,335" fill="none" stroke="#D3A46C" />			
    <polyline points="413,335 422,323 383,331" fill="none" stroke="#E8B576" />			
    <polyline points="297,376 364,359 368,409" fill="none" stroke="#D88F5A" />
    <polyline points="364,359 368,409 381,361" fill="none" stroke="#AD654F" />
    <polyline points="367,430 390,471 406,445" fill="none" stroke="#792E55" />			
    <polyline points="413,335 444,350 422,323" fill="none" stroke="#F1BF7A" />
    <polyline points="383,331 413,335 402,354" fill="none" stroke="#C39160" />			
    <polyline points="405,315 422,323 383,331" fill="none" stroke="#BB875F" />
    <polyline points="422,323 444,350 452,317" fill="none" stroke="#F7D79A" />
    <polyline points="422,323 452,317 427,312" fill="none" stroke="#DEB072" />
    <polyline points="452,311 471,303 466,320 452,317" fill="none" stroke="#D38E57" />				
    <polyline points="452,311 452,317 427,306" fill="none" stroke="#DEB072" />
    <polyline points="427,306 452,311 427,295" fill="none" stroke="#B88864" />
    <polyline points="376,322 405,315 377,307" fill="none" stroke="#8E4453" />
    <polyline points="365,311 377,307 368,290" fill="none" stroke="#A06057" />
    <polyline points="377,307 405,315 394,295" fill="none" stroke="#E2A76B" />
    <polyline points="405,315 394,295 416,283" fill="none" stroke="#F9DB9F" />
    <polyline points="307,309 297,376 354,312" fill="none" stroke="#E79C62" />		
    <polyline points="368,290 377,307 394,295" fill="none" stroke="#C5885B" />
    <polyline points="307,309 354,312 345,280" fill="none" stroke="#D6895D" />
    <polyline points="307,309 345,280 322,272" fill="none" stroke="#EAA267" />			
    <polyline points="400,276 394,295 416,283" fill="none" stroke="#F7C684" />
    <polyline points="430,276 427,295 416,283" fill="none" stroke="#4F2150" />
    <polyline points="441,282 455,268 430,276" fill="none" stroke="#442551" />	
    <polyline points="429,268 430,276 409,268" fill="none" stroke="#905952" />
    <polyline points="400,276 416,283 430,276 409,268" fill="none" stroke="#3F1C53" />
    <polyline points="368,290 394,295 400,276" fill="none" stroke="#F9BD74" />
    <polyline points="368,290 400,276 379,266" fill="none" stroke="#BE7356" />
    <polyline points="307,309 322,272 272,301" fill="none" stroke="#C67B5C" />
    <polyline points="272,301 322,272 299,264" fill="none" stroke="#C68464" />
    <polyline points="430,276 455,268 429,268" fill="none" stroke="#744855" />
    <polyline points="368,290 379,266 345,280" fill="none" stroke="#98525A" />
    <polyline points="345,280 379,266 351,253" fill="none" stroke="#B1625D" />
    <polyline points="345,280 368,290 354,312" fill="none" stroke="#B1625D" />
    <polyline points="429,268 455,268 444,254" fill="none" stroke="#D89F6A" />
    <polyline points="444,254 455,268 457,248" fill="none" stroke="#C47F55" />
    <polyline points="414,254 444,254 423,235" fill="none" stroke="#BD7859" />
    <polyline points="351,253 348,223 365,226" fill="none" stroke="#EAAF77" />
    <polyline points="348,223 365,226 361,216" fill="none" stroke="#E09B72" />
    <polyline points="367,430 406,445 391,420" fill="none" stroke="#743854" />
    <polyline points="367,430 391,420 368,409" fill="none" stroke="#8E4C50" />
    <polyline points="368,409 391,420 398,402" fill="none" stroke="#6D3A3D" />
    <polyline points="398,402 391,420 432,426" fill="none" stroke="#A5585D" />
    <polyline points="368,409 398,402 381,361" fill="none" stroke="#87484C" />
    <polyline points="381,361 398,402 402,354" fill="none" stroke="#571C4F" />
    <polyline points="402,354 383,331 381,361" fill="none" stroke="#6B3B51" />
    <polyline points="383,331 405,315 376,322" fill="none" stroke="#6B3B51" />
    <polyline points="377,307 376,322 365,311" fill="none" stroke="#7E3854" />
    <polyline points="354,312 297,376 364,359" fill="none" stroke="#E9A461" />
    <polyline points="381,361 383,331 376,322 365,311 354,312 364,359" fill="none" stroke="#571C4F" />
    <polyline points="354,312 365,311 368,290" fill="none" stroke="#8D4956" />
    <polyline points="441,282 468,284 455,268" fill="none" stroke="#F2B974" />
    <polyline points="429,268 444,254 414,254" fill="none" stroke="#C8885C" />
    <polyline points="414,254 429,268 409,268" fill="none" stroke="#CD9566" />
    <polyline points="351,253 379,245 379,266" fill="none" stroke="#AC7068" />
    <polyline points="400,276 409,268 394,265" fill="none" stroke="#6C2E57" />
    <polyline points="409,268 414,254 379,245 379,266 400,276 394,265" fill="none" stroke="#9D5C58" />
    <polyline points="365,226 379,245 383,226" fill="none" stroke="#CD9971" />
    <polyline points="391,224 420,213 423,235" fill="none" stroke="#B26D5D" />
    <polyline points="414,254 379,245 383,226 391,224 423,235" fill="none" stroke="#91535D" />
    <polyline points="383,226 391,224 379,218" fill="none" stroke="#B0746A" />
    <polyline points="379,218 383,226 367,218" fill="none" stroke="#F0BD8A" />
    <polyline points="365,226 383,226 367,218" fill="none" stroke="#F6DA9B" />
    <polyline points="365,226 367,218 361,216" fill="none" stroke="#F9F0B8" />
    <polyline points="367,218 372,210 361,216" fill="none" stroke="#9E5663" />
    <polyline points="380,206 420,213 391,224" fill="none" stroke="#CC8A6A" />
    <polyline points="367,218 379,218 372,210" fill="none" stroke="#DA9172" />
    <polyline points="372,210 380,206 391,224 379,218 372,210" fill="none" stroke="#7B3962" />
    <polyline points="455,268 468,284 474,260" fill="none" stroke="#D49A5A" />
    <polyline points="500,245 498,273 468,284" fill="none" stroke="#C87A4C" />
    <polyline points="490,213 487,235 500,245" fill="none" stroke="#DA8951" />
    <polyline points="468,220 490,213 487,235" fill="none" stroke="#F2AF67" />
    <polyline points="455,268 474,260 472,231" fill="none" stroke="#C78052" />
    <polyline points="468,284 500,245 487,235 468,220 460,226 472,231 474,260" fill="none" stroke="#ECA45F" />
    <polyline points="444,220 440,210 449,208" fill="none" stroke="#BB7E5A" />
    <polyline points="468,220 460,226 461,217" fill="none" stroke="#F7F0AE" />
    <polyline points="431,188 464,208 449,208" fill="none" stroke="#AC5D58" />
    <polyline points="468,220 461,217 451,221 464,208" fill="none" stroke="#4C2055" />
    <polyline points="455,268 472,231 457,248" fill="none" stroke="#E9B674" />
    <polyline points="460,226 461,217 451,221" fill="none" stroke="#F5D997" />
    <polyline points="420,213 440,210 444,220" fill="none" stroke="#D9A46E" />
    <polyline points="457,248 472,231 460,226 451,221 444,220" fill="none" stroke="#F7C07B" />
    <polyline points="457,248 444,220 423,235 444,254" fill="none" stroke="#D89B65" />
    <polyline points="451,221 456,216 446,215" fill="none" stroke="#D89B65" />
    <polyline points="446,215 451,221 444,220" fill="none" stroke="#682B58" />
    <polyline points="456,216 446,215 449,208 464,208" fill="none" stroke="#682B58" />
</svg>
